<svg width="11" height="14" viewBox="0 0 11 14" fill="none" xmlns="http://www.w3.org/2000/svg">
<path d="M5.72414 0C2.92049 0 0.638673 2.28273 0.638672 5.08637C0.63867 10.0196 5.43785 13.7699 5.43785 13.7699C5.60645 13.9041 5.84545 13.9041 6.01404 13.7699C6.01404 13.7699 10.8141 10.0196 10.8141 5.08637C10.8141 2.28273 8.52779 0 5.72414 0ZM5.72414 2.77529C6.99554 2.77529 8.03883 3.81498 8.03884 5.08637C8.03885 6.35778 6.99554 7.40017 5.72414 7.40017C4.45274 7.40017 3.41305 6.35778 3.41306 5.08637C3.41306 3.81498 4.45275 2.77529 5.72414 2.77529Z" fill="white"/>
</svg>
