<svg width="14" height="14" viewBox="0 0 14 14" fill="none" xmlns="http://www.w3.org/2000/svg">
<path d="M12.3685 7.92918C10.8686 6.43537 9.11864 6.23619 7.8687 7.53083C7.71871 7.68021 7.56872 7.82959 7.46872 8.02877C6.76876 7.43124 6.16879 6.78392 5.56882 6.13661C5.76881 5.98722 5.9188 5.88764 6.06879 5.73826C7.31873 4.49341 7.16874 2.75063 5.66881 1.25682C4.16889 -0.236995 2.41898 -0.43617 1.16904 0.858467C-0.180889 2.2029 -0.380879 4.54321 0.669068 6.13661C2.41898 8.72588 4.96885 11.3152 7.56872 13.0081C8.26868 13.4563 9.06864 13.6555 9.8686 13.6555C10.9685 13.6555 12.0685 13.2571 12.8185 12.5102C14.0684 11.1658 13.9184 9.42299 12.3685 7.92918Z" fill="white"/>
</svg>
